<svg width="24" height="24" viewBox="0 0 24 24" xmlns="http://www.w3.org/2000/svg">
  <path fill-rule="evenodd" clip-rule="evenodd" d="M20.0489 6.35134C20.2739 6.57638 20.4002 6.88155 20.4002 7.19974C20.4002 7.51794 20.2739 7.82311 20.0489 8.04814L10.4489 17.6481C10.2239 17.8731 9.91869 17.9995 9.60049 17.9995C9.28229 17.9995 8.97712 17.8731 8.75209 17.6481L3.95209 12.8481C3.7335 12.6218 3.61255 12.3187 3.61528 12.0041C3.61801 11.6894 3.74422 11.3885 3.96671 11.166C4.1892 10.9435 4.49017 10.8173 4.80481 10.8145C5.11944 10.8118 5.42257 10.9328 5.64889 11.1513L9.60049 15.1029L18.3521 6.35134C18.5771 6.12638 18.8823 6 19.2005 6C19.5187 6 19.8239 6.12638 20.0489 6.35134Z"/>
</svg>
