<svg width="24" height="24" viewBox="0 0 24 24" xmlns="http://www.w3.org/2000/svg">
<path d="M11.9871 11.2033L18.3621 4.82827C18.8027 4.38765 19.5152 4.38765 19.9511 4.82827L21.0105 5.88765C21.4511 6.32827 21.4511 7.04077 21.0105 7.47671L16.4964 12.0001L21.0152 16.5189C21.4558 16.9595 21.4558 17.672 21.0152 18.108L19.9558 19.172C19.5152 19.6126 18.8027 19.6126 18.3667 19.172L11.9917 12.797C11.5464 12.3564 11.5464 11.6439 11.9871 11.2033V11.2033ZM2.98705 12.797L9.36205 19.172C9.80268 19.6126 10.5152 19.6126 10.9511 19.172L12.0105 18.1126C12.4511 17.672 12.4511 16.9595 12.0105 16.5236L7.49643 12.0001L12.0152 7.4814C12.4558 7.04077 12.4558 6.32827 12.0152 5.89233L10.9558 4.82827C10.5152 4.38765 9.80268 4.38765 9.36674 4.82827L2.99174 11.2033C2.54643 11.6439 2.54643 12.3564 2.98705 12.797V12.797Z"/>
</svg>
