<svg width="24" height="24" viewBox="0 0 24 24" xmlns="http://www.w3.org/2000/svg">
  <path d="M13.4528 15.595C13.4176 15.5601 13.37 15.5406 13.3204 15.5406C13.2708 15.5406 13.2232 15.5601 13.188 15.595L10.4646 18.3185C9.20361 19.5794 7.07549 19.713 5.6833 18.3185C4.28877 16.9239 4.42236 14.7981 5.6833 13.5372L8.40674 10.8138C8.47939 10.7411 8.47939 10.6216 8.40674 10.5489L7.47393 9.61611C7.43869 9.58122 7.3911 9.56165 7.3415 9.56165C7.29191 9.56165 7.24432 9.58122 7.20908 9.61611L4.48564 12.3396C2.50283 14.3224 2.50283 17.531 4.48564 19.5114C6.46846 21.4919 9.67705 21.4942 11.6575 19.5114L14.381 16.788C14.4536 16.7153 14.4536 16.5958 14.381 16.5231L13.4528 15.595ZM19.5138 4.48564C17.531 2.50283 14.3224 2.50283 12.3419 4.48564L9.61611 7.20908C9.58122 7.24432 9.56164 7.29191 9.56164 7.3415C9.56164 7.3911 9.58122 7.43869 9.61611 7.47393L10.5466 8.4044C10.6192 8.47705 10.7388 8.47705 10.8114 8.4044L13.5349 5.68096C14.7958 4.42002 16.9239 4.28643 18.3161 5.68096C19.7106 7.07549 19.5771 9.20127 18.3161 10.4622L15.5927 13.1856C15.5578 13.2209 15.5382 13.2685 15.5382 13.3181C15.5382 13.3677 15.5578 13.4152 15.5927 13.4505L16.5255 14.3833C16.5981 14.456 16.7177 14.456 16.7903 14.3833L19.5138 11.6599C21.4942 9.67705 21.4942 6.46846 19.5138 4.48564ZM14.2989 8.72549C14.2637 8.69059 14.2161 8.67102 14.1665 8.67102C14.1169 8.67102 14.0693 8.69059 14.0341 8.72549L8.72549 14.0317C8.69059 14.067 8.67102 14.1146 8.67102 14.1642C8.67102 14.2138 8.69059 14.2613 8.72549 14.2966L9.65361 15.2247C9.72627 15.2974 9.8458 15.2974 9.91846 15.2247L15.2247 9.91846C15.2974 9.8458 15.2974 9.72627 15.2247 9.65361L14.2989 8.72549Z"/>
</svg>
