<svg width="24" height="24" viewBox="0 0 24 24" fill="none" xmlns="http://www.w3.org/2000/svg">
<path fill-rule="evenodd" clip-rule="evenodd" d="M13.75 3C13.75 2.30964 14.3096 1.75 15 1.75H19C19.862 1.75 20.6886 2.09241 21.2981 2.7019C21.9076 3.3114 22.25 4.13805 22.25 5V19C22.25 19.862 21.9076 20.6886 21.2981 21.2981C20.6886 21.9076 19.862 22.25 19 22.25H15C14.3096 22.25 13.75 21.6904 13.75 21C13.75 20.3096 14.3096 19.75 15 19.75H19C19.1989 19.75 19.3897 19.671 19.5303 19.5303C19.671 19.3897 19.75 19.1989 19.75 19V5C19.75 4.80109 19.671 4.61032 19.5303 4.46967C19.3897 4.32902 19.1989 4.25 19 4.25H15C14.3096 4.25 13.75 3.69036 13.75 3Z" fill="black"/>
<path fill-rule="evenodd" clip-rule="evenodd" d="M9.11658 6.11606C9.60474 5.6279 10.3962 5.6279 10.8844 6.11606L15.8844 11.1161C16.1188 11.3505 16.2505 11.6684 16.2505 11.9999C16.2505 12.3315 16.1188 12.6494 15.8844 12.8838L10.8844 17.8838C10.3962 18.372 9.60474 18.372 9.11658 17.8838C8.62843 17.3957 8.62843 16.6042 9.11658 16.1161L13.2327 11.9999L9.11658 7.88383C8.62843 7.39567 8.62843 6.60421 9.11658 6.11606Z" fill="black"/>
<path fill-rule="evenodd" clip-rule="evenodd" d="M1.75 12C1.75 11.3096 2.30964 10.75 3 10.75H15C15.6904 10.75 16.2505 11.3096 16.2505 11.9999C16.2505 12.6903 15.6904 13.25 15 13.25H3C2.30964 13.25 1.75 12.6904 1.75 12Z" fill="black"/>
</svg>
