<svg width="24" height="24" viewBox="0 0 24 24" fill="none" xmlns="http://www.w3.org/2000/svg">
<path fill-rule="evenodd" clip-rule="evenodd" d="M5 4.25C4.80109 4.25 4.61032 4.32902 4.46967 4.46967C4.32902 4.61032 4.25 4.80109 4.25 5V19C4.25 19.1989 4.32902 19.3897 4.46967 19.5303C4.61032 19.671 4.80109 19.75 5 19.75H9C9.69036 19.75 10.25 20.3096 10.25 21C10.25 21.6904 9.69036 22.25 9 22.25H5C4.13805 22.25 3.3114 21.9076 2.7019 21.2981C2.09241 20.6886 1.75 19.862 1.75 19V5C1.75 4.13805 2.09241 3.3114 2.7019 2.7019C3.3114 2.09241 4.13805 1.75 5 1.75H9C9.69036 1.75 10.25 2.30964 10.25 3C10.25 3.69036 9.69036 4.25 9 4.25H5Z" fill="black"/>
<path fill-rule="evenodd" clip-rule="evenodd" d="M15.1166 6.11588C15.6047 5.62773 16.3962 5.62773 16.8844 6.11588L21.8843 11.1159C22.3725 11.604 22.3725 12.3955 21.8843 12.8836L16.8844 17.8836C16.3962 18.3718 15.6047 18.3718 15.1166 17.8836C14.6284 17.3955 14.6284 16.604 15.1166 16.1159L19.2327 11.9998L15.1166 7.88365C14.6284 7.39549 14.6284 6.60404 15.1166 6.11588Z" fill="black"/>
<path fill-rule="evenodd" clip-rule="evenodd" d="M7.75 12C7.75 11.3096 8.30964 10.75 9 10.75H21C21.6904 10.75 22.25 11.3096 22.25 12C22.25 12.6904 21.6904 13.25 21 13.25H9C8.30964 13.25 7.75 12.6904 7.75 12Z" fill="black"/>
</svg>
