<svg width="24" height="24" viewBox="0 0 24 24" fill="none" xmlns="http://www.w3.org/2000/svg">
<path fill-rule="evenodd" clip-rule="evenodd" d="M11.9994 2.40015C12.3177 2.40015 12.6229 2.52657 12.8479 2.75162C13.073 2.97666 13.1994 3.28189 13.1994 3.60015V4.80015C13.1994 5.11841 13.073 5.42363 12.8479 5.64867C12.6229 5.87372 12.3177 6.00015 11.9994 6.00015C11.6812 6.00015 11.3759 5.87372 11.1509 5.64867C10.9258 5.42363 10.7994 5.11841 10.7994 4.80015V3.60015C10.7994 3.28189 10.9258 2.97666 11.1509 2.75162C11.3759 2.52657 11.6812 2.40015 11.9994 2.40015V2.40015ZM16.7994 12.0001C16.7994 13.2732 16.2937 14.4941 15.3935 15.3943C14.4934 16.2944 13.2725 16.8001 11.9994 16.8001C10.7264 16.8001 9.50548 16.2944 8.6053 15.3943C7.70513 14.4941 7.19941 13.2732 7.19941 12.0001C7.19941 10.7271 7.70513 9.50621 8.6053 8.60603C9.50548 7.70586 10.7264 7.20015 11.9994 7.20015C13.2725 7.20015 14.4934 7.70586 15.3935 8.60603C16.2937 9.50621 16.7994 10.7271 16.7994 12.0001V12.0001ZM16.2426 17.9401L17.091 18.7885C17.3173 19.0071 17.6205 19.1281 17.9351 19.1254C18.2497 19.1226 18.5507 18.9964 18.7732 18.7739C18.9957 18.5514 19.1219 18.2505 19.1246 17.9358C19.1274 17.6212 19.0064 17.3181 18.7878 17.0917L17.9394 16.2433C17.7131 16.0248 17.41 15.9038 17.0953 15.9065C16.7807 15.9093 16.4797 16.0355 16.2572 16.258C16.0347 16.4805 15.9085 16.7814 15.9058 17.0961C15.9031 17.4107 16.024 17.7138 16.2426 17.9401V17.9401ZM18.7866 5.21175C19.0116 5.43678 19.138 5.74195 19.138 6.06015C19.138 6.37834 19.0116 6.68351 18.7866 6.90855L17.9394 7.75695C17.8287 7.87156 17.6963 7.96298 17.5499 8.02587C17.4035 8.08876 17.246 8.12186 17.0867 8.12325C16.9274 8.12463 16.7693 8.09427 16.6219 8.03393C16.4744 7.9736 16.3404 7.88449 16.2277 7.77182C16.1151 7.65915 16.026 7.52517 15.9656 7.37769C15.9053 7.23022 15.8749 7.0722 15.8763 6.91287C15.8777 6.75353 15.9108 6.59607 15.9737 6.44966C16.0366 6.30326 16.128 6.17084 16.2426 6.06015L17.091 5.21175C17.316 4.98678 17.6212 4.8604 17.9394 4.8604C18.2576 4.8604 18.5628 4.98678 18.7878 5.21175H18.7866ZM20.3994 13.2001C20.7177 13.2001 21.0229 13.0737 21.2479 12.8487C21.473 12.6236 21.5994 12.3184 21.5994 12.0001C21.5994 11.6819 21.473 11.3767 21.2479 11.1516C21.0229 10.9266 20.7177 10.8001 20.3994 10.8001H19.1994C18.8812 10.8001 18.5759 10.9266 18.3509 11.1516C18.1258 11.3767 17.9994 11.6819 17.9994 12.0001C17.9994 12.3184 18.1258 12.6236 18.3509 12.8487C18.5759 13.0737 18.8812 13.2001 19.1994 13.2001H20.3994ZM11.9994 18.0001C12.3177 18.0001 12.6229 18.1266 12.8479 18.3516C13.073 18.5767 13.1994 18.8819 13.1994 19.2001V20.4001C13.1994 20.7184 13.073 21.0236 12.8479 21.2487C12.6229 21.4737 12.3177 21.6001 11.9994 21.6001C11.6812 21.6001 11.3759 21.4737 11.1509 21.2487C10.9258 21.0236 10.7994 20.7184 10.7994 20.4001V19.2001C10.7994 18.8819 10.9258 18.5767 11.1509 18.3516C11.3759 18.1266 11.6812 18.0001 11.9994 18.0001V18.0001ZM6.05941 7.75695C6.17083 7.86844 6.30311 7.9569 6.44871 8.01726C6.59431 8.07763 6.75037 8.10873 6.90799 8.10879C7.06561 8.10885 7.22169 8.07786 7.36734 8.01759C7.51298 7.95732 7.64532 7.86896 7.75681 7.75755C7.86831 7.64613 7.95676 7.51385 8.01713 7.36825C8.0775 7.22265 8.1086 7.06659 8.10866 6.90897C8.10871 6.75135 8.07772 6.59527 8.01746 6.44963C7.95719 6.30398 7.86883 6.17164 7.75741 6.06015L6.90781 5.21175C6.68149 4.99316 6.37837 4.8722 6.06373 4.87494C5.7491 4.87767 5.44812 5.00387 5.22563 5.22636C5.00314 5.44885 4.87694 5.74983 4.87421 6.06447C4.87147 6.3791 4.99242 6.68222 5.21101 6.90855L6.05941 7.75695V7.75695ZM7.75621 17.9401L6.90781 18.7885C6.68149 19.0071 6.37837 19.1281 6.06373 19.1254C5.7491 19.1226 5.44812 18.9964 5.22563 18.7739C5.00314 18.5514 4.87694 18.2505 4.87421 17.9358C4.87147 17.6212 4.99242 17.3181 5.21101 17.0917L6.05941 16.2433C6.28574 16.0248 6.58886 15.9038 6.9035 15.9065C7.21813 15.9093 7.51911 16.0355 7.7416 16.258C7.96409 16.4805 8.09029 16.7814 8.09302 17.0961C8.09576 17.4107 7.9748 17.7138 7.75621 17.9401V17.9401ZM4.79941 13.2001C5.11767 13.2001 5.4229 13.0737 5.64794 12.8487C5.87299 12.6236 5.99941 12.3184 5.99941 12.0001C5.99941 11.6819 5.87299 11.3767 5.64794 11.1516C5.4229 10.9266 5.11767 10.8001 4.79941 10.8001H3.59941C3.28115 10.8001 2.97593 10.9266 2.75089 11.1516C2.52584 11.3767 2.39941 11.6819 2.39941 12.0001C2.39941 12.3184 2.52584 12.6236 2.75089 12.8487C2.97593 13.0737 3.28115 13.2001 3.59941 13.2001H4.79941Z" fill="black"/>
</svg>
