<svg width="24" height="24" viewBox="0 0 24 24" xmlns="http://www.w3.org/2000/svg">
  <path d="M7.91856 21C16.2205 21 20.7613 14.0743 20.7613 8.0683C20.7613 7.87158 20.7613 7.67576 20.7481 7.48082C21.6315 6.83743 22.394 6.0408 23 5.12823C22.1762 5.49578 21.3023 5.73682 20.4075 5.84331C21.3498 5.2753 22.055 4.38193 22.3919 3.32945C21.5059 3.85885 20.5366 4.23195 19.5258 4.43264C18.8452 3.70399 17.9452 3.2215 16.9648 3.05982C15.9845 2.89815 14.9786 3.06631 14.1028 3.53829C13.227 4.01026 12.53 4.75974 12.1198 5.67073C11.7097 6.58173 11.6091 7.60345 11.8337 8.5778C10.0391 8.48722 8.28358 8.01764 6.68096 7.19956C5.07835 6.38148 3.6645 5.23318 2.5312 3.82921C1.954 4.82976 1.77722 6.0142 2.03684 7.14139C2.29647 8.26857 2.97298 9.25374 3.92864 9.89632C3.21033 9.87488 2.50769 9.67977 1.88 9.32744C1.88 9.34605 1.88 9.36554 1.88 9.38504C1.88029 10.4344 2.24103 11.4513 2.90105 12.2633C3.56107 13.0754 4.47972 13.6326 5.5012 13.8403C4.83669 14.0228 4.13947 14.0495 3.46312 13.9183C3.75155 14.8214 4.31308 15.6111 5.06918 16.177C5.82528 16.743 6.73814 17.0568 7.68008 17.0746C6.08177 18.3394 4.10733 19.0261 2.07448 19.024C1.71536 19.0233 1.35658 19.0014 1 18.9584C3.06416 20.2923 5.46592 20.9997 7.91856 20.9965"/>
</svg>
