<svg width="512" height="83" viewBox="0 0 512 83" fill="none" xmlns="http://www.w3.org/2000/svg">
<path fill-rule="evenodd" clip-rule="evenodd" d="M497.261 76.5197C496.01 71.8769 495.058 67.176 494.403 62.4171C499.703 53.3636 503.96 44.5712 507.176 36.04C510.392 27.5088 512 20.0512 512 13.6673C512 9.08254 511.136 5.65845 509.409 3.39508C507.742 1.13169 505.628 0 503.067 0C497.767 0 493.509 4.06248 490.294 12.1874C487.137 20.3124 484.993 29.8592 483.862 40.8279C479.515 41.3502 475.584 42.8882 472.071 45.4417C468.557 47.9373 465.788 51.1582 463.764 55.1046C461.807 58.9185 460.796 63.0577 460.73 67.522C459.53 68.7975 458.484 69.8235 457.592 70.6001C455.984 71.9929 454.584 72.6894 453.393 72.6894C451.666 72.6894 450.803 71.5287 450.803 69.2072C450.803 67.5823 451.369 64.2452 452.5 59.1961C453.81 53.2765 454.465 49.185 454.465 46.9216C454.465 43.1493 452.53 41.2632 448.659 41.2632C446.694 41.2632 444.52 41.9306 442.138 43.2654C439.816 44.6002 437.434 46.8346 434.992 49.9685C432.551 53.1024 430.347 57.1649 428.382 62.1559C428.62 59.6024 428.918 57.4551 429.275 55.714C429.633 53.9729 430.109 51.9417 430.704 49.6203C431.598 46.3703 432.044 44.281 432.044 43.3525C432.044 42.54 431.806 41.9886 431.33 41.6984C430.853 41.4083 430.02 41.2632 428.829 41.2632C426.625 41.2632 424.898 41.6694 423.648 42.4819C422.457 43.2364 421.593 44.4551 421.057 46.1382C419.02 52.4176 417.924 59.0196 417.771 65.9442C415.765 67.8739 413.509 69.5129 411.001 70.8613C407.607 72.6603 404.569 73.5599 401.89 73.5599C397.721 73.5599 394.892 72.2251 393.404 69.5555C400.431 67.8724 405.403 65.609 408.321 62.7653C411.299 59.8635 412.788 56.4104 412.788 52.406C412.788 48.9819 411.745 46.2833 409.661 44.31C407.577 42.2788 404.808 41.2632 401.354 41.2632C397.483 41.2632 393.999 42.2788 390.903 44.31C387.865 46.3413 385.483 49.098 383.756 52.5801C382.689 54.6973 381.951 56.9255 381.543 59.2646C380.782 59.6252 380.088 59.8055 379.462 59.8055C377.973 59.8055 377.229 58.7899 377.229 56.7586C377.229 56.1783 377.467 54.7274 377.943 52.406C378.479 49.5042 378.747 47.6761 378.747 46.9216C378.747 43.1493 376.812 41.2632 372.941 41.2632C370.976 41.2632 368.802 41.9306 366.42 43.2654C364.098 44.6002 361.716 46.8346 359.274 49.9685C356.832 53.1024 354.629 57.1649 352.664 62.1559C352.902 59.6024 353.2 57.4551 353.557 55.714C353.914 53.9729 354.391 51.9417 354.986 49.6203C355.88 46.3703 356.326 44.281 356.326 43.3525C356.326 42.54 356.088 41.9886 355.612 41.6984C355.135 41.4083 354.302 41.2632 353.111 41.2632C350.907 41.2632 349.18 41.6694 347.93 42.4819C346.739 43.2364 345.875 44.4551 345.339 46.1382C343.136 52.9283 342.034 60.0957 342.034 67.6403C342.034 72.7474 342.481 76.4617 343.374 78.7831C344.327 81.1045 345.935 82.2652 348.198 82.2652C350.044 82.2652 351.384 81.8009 352.217 80.8724C353.111 79.8858 353.885 78.0286 354.54 75.301C355.433 71.7608 356.594 68.3947 358.023 65.2028C359.453 62.0109 360.882 59.4573 362.311 57.5421C363.8 55.5689 364.991 54.5823 365.884 54.5823C366.539 54.5823 366.867 55.0466 366.867 55.9752C366.867 56.3814 366.807 57.1649 366.688 58.3256C366.509 59.1961 366.42 60.0667 366.42 60.9372C366.42 63.6068 367.224 65.7251 368.832 67.2921C370.499 68.859 372.911 69.6425 376.067 69.6425C378.014 69.6425 379.871 69.2909 381.637 68.5877C382.364 72.0875 383.934 74.9926 386.347 77.3032C389.801 80.6112 394.654 82.2652 400.907 82.2652C405.493 82.2652 409.78 81.1625 413.77 78.9572C415.463 78.0354 416.994 77.0782 418.364 76.0855C418.56 77.1311 418.802 78.0303 419.092 78.7831C420.045 81.1045 421.653 82.2652 423.916 82.2652C425.762 82.2652 427.102 81.8009 427.935 80.8724C428.829 79.8858 429.603 78.0286 430.258 75.301C431.151 71.7608 432.312 68.3947 433.742 65.2028C435.23 62.0109 436.66 59.4573 438.029 57.5421C439.458 55.5689 440.56 54.5823 441.334 54.5823C441.989 54.5823 442.317 55.0466 442.317 55.9752C442.317 57.368 441.93 59.8926 441.156 63.5488C440.322 67.7273 439.905 70.6291 439.905 72.2541C439.905 75.5041 440.679 77.9996 442.228 79.7407C443.776 81.4237 446.069 82.2652 449.106 82.2652C452.857 82.2652 456.192 81.2786 459.11 79.3054C460.39 78.457 461.632 77.5067 462.835 76.4544C463.236 77.1241 463.695 77.7553 464.21 78.3478C466.592 80.9594 469.6 82.2652 473.232 82.2652C475.614 82.2652 477.698 81.8009 479.485 80.8724C481.331 79.9438 483.386 78.1157 485.649 75.388L485.738 75.7362C486.572 78.4639 487.465 80.321 488.418 81.3076C489.43 82.2942 490.859 82.7875 492.705 82.7875C495.981 82.7875 497.618 81.4817 497.618 78.8701C497.618 78.0576 497.499 77.2742 497.261 76.5197ZM497.172 21.4151C498.72 12.8258 500.358 8.5312 502.085 8.5312C502.621 8.5312 503.067 9.14058 503.424 10.3593C503.841 11.5781 504.05 13.2901 504.05 15.4955C504.05 24.2008 500.745 35.5177 494.135 49.4462C494.671 39.348 495.683 30.0043 497.172 21.4151ZM479.753 72.1671C478.681 73.0376 477.55 73.4728 476.359 73.4728C473.381 73.4728 471.892 71.3546 471.892 67.118C471.892 63.1135 472.964 59.4573 475.108 56.1493C477.252 52.8413 479.961 50.723 483.237 49.7944C483.177 50.781 483.147 52.1738 483.147 53.9729C483.147 58.4997 483.445 62.8814 484.041 67.118C482.314 69.6135 480.884 71.2965 479.753 72.1671ZM166.171 9.57585C168.017 9.92406 169.387 10.5334 170.28 11.404C171.233 12.2745 171.71 13.2901 171.71 14.4508C171.71 16.366 171.144 17.7588 170.012 18.6294C168.94 19.4999 167.213 19.8481 164.831 19.674C159.472 19.2678 155.274 19.0066 152.236 18.8905C149.259 18.7164 145.329 18.6004 140.445 18.5423C138.242 29.2208 136.217 39.9574 134.371 50.752C133.716 54.6984 133.031 59.2832 132.317 64.5064C131.602 69.6715 131.126 73.8501 130.887 77.042C130.768 78.7251 130.054 80.0308 128.744 80.9594C127.433 81.8299 125.855 82.2652 124.009 82.2652C122.044 82.2652 120.526 81.8009 119.454 80.8724C118.382 79.9438 117.846 78.7251 117.846 77.2161C117.846 75.8233 118.054 73.5309 118.471 70.3389C118.947 67.089 119.483 63.6939 120.079 60.1537C120.734 56.6136 121.24 53.5377 121.597 50.9261C122.253 46.5154 122.997 42.1337 123.831 37.7811C124.664 33.4284 125.498 29.3079 126.332 25.4195C126.51 24.549 126.719 23.5624 126.957 22.4597C127.195 21.299 127.463 20.0222 127.761 18.6294C121.925 18.8035 117.34 19.2678 114.005 20.0222C110.67 20.7767 108.288 21.8503 106.859 23.2432C105.489 24.578 104.804 26.3191 104.804 28.4664C104.804 30.4396 105.4 32.3257 106.591 34.1248C106.829 34.5311 106.948 34.9663 106.948 35.4306C106.948 36.5333 106.263 37.5779 104.893 38.5645C103.583 39.4931 102.214 39.9574 100.784 39.9574C99.772 39.9574 98.9383 39.6672 98.2833 39.0869C97.0923 38.1003 96.1097 36.7074 95.3355 34.9083C94.5613 33.0512 94.1743 30.9619 94.1743 28.6405C94.1743 23.7075 95.8119 19.7611 99.0872 16.8013C102.422 13.7834 107.454 11.5781 114.183 10.1852C120.972 8.79237 129.667 8.09594 140.267 8.09594C146.817 8.09594 152.028 8.21201 155.899 8.44415C159.829 8.6763 163.253 9.05353 166.171 9.57585ZM210.895 65.9869C211.299 70.6704 212.994 74.4425 215.981 77.3032C219.435 80.6112 224.289 82.2652 230.541 82.2652C235.127 82.2652 239.415 81.1625 243.404 78.9572C245.606 77.7584 247.534 76.4995 249.19 75.1807C249.741 75.9366 250.361 76.6441 251.049 77.3032C254.503 80.6112 259.356 82.2652 265.609 82.2652C270.194 82.2652 274.482 81.1625 278.472 78.9572C282.522 76.7518 285.648 74.3434 287.851 71.7318C288.983 70.455 289.548 68.6559 289.548 66.3345C289.548 65.1157 289.31 64.1582 288.834 63.4617C288.417 62.7653 287.822 62.4171 287.047 62.4171C286.154 62.4171 285.35 62.8233 284.636 63.6358C282.134 66.5956 279.157 69.0041 275.703 70.8613C272.309 72.6603 269.271 73.5599 266.592 73.5599C262.423 73.5599 259.594 72.2251 258.106 69.5555C265.133 67.8724 270.105 65.609 273.023 62.7653C276.001 59.8635 277.489 56.4104 277.489 52.406C277.489 48.9819 276.447 46.2833 274.363 44.31C272.279 42.2788 269.51 41.2632 266.056 41.2632C262.185 41.2632 258.701 42.2788 255.604 44.31C252.567 46.3413 250.185 49.098 248.458 52.5801C246.731 56.0042 245.868 59.7184 245.868 63.7229C245.868 64.9132 245.942 66.0513 246.09 67.137C244.428 68.5585 242.609 69.7999 240.635 70.8613C237.241 72.6603 234.204 73.5599 231.524 73.5599C227.355 73.5599 224.527 72.2251 223.038 69.5555C230.065 67.8724 235.038 65.609 237.956 62.7653C240.933 59.8635 242.422 56.4104 242.422 52.406C242.422 48.9819 241.38 46.2833 239.295 44.31C237.211 42.2788 234.442 41.2632 230.988 41.2632C227.117 41.2632 223.634 42.2788 220.537 44.31C217.5 46.3413 215.118 49.098 213.391 52.5801C212.805 53.7418 212.318 54.937 211.931 56.1655C209.045 56.6972 206.668 57.011 204.798 57.1069C206.227 53.7408 206.942 50.752 206.942 48.1404C206.942 45.877 206.406 44.165 205.334 43.0042C204.262 41.7855 202.863 41.1761 201.136 41.1761C199.17 41.1761 197.414 41.7565 195.865 42.9172C194.317 44.0779 193.096 45.5868 192.203 47.444C191.31 49.3011 190.863 51.2163 190.863 53.1895C190.863 55.5109 191.31 57.5131 192.203 59.1961C190.416 62.272 187.737 66.3925 184.164 71.5577C183.33 60.8792 182.913 52.2029 182.913 45.5288C182.913 43.9038 182.586 42.7721 181.93 42.1337C181.335 41.4953 180.233 41.1761 178.625 41.1761C177.315 41.1761 176.184 41.4953 175.231 42.1337C174.338 42.7141 173.564 43.8748 172.908 45.6158C169.514 54.6113 165.792 63.2586 161.743 71.5577C160.909 60.8792 160.492 52.2029 160.492 45.5288C160.492 43.9618 160.105 42.8592 159.331 42.2208C158.616 41.5243 157.485 41.1761 155.936 41.1761C153.912 41.1761 152.393 41.5534 151.381 42.3078C150.368 43.0623 149.833 44.3971 149.773 46.3123V49.3591C149.773 55.4529 150.13 62.5622 150.845 70.6871C151.202 74.6916 152.066 77.6224 153.435 79.4795C154.865 81.3366 156.8 82.2652 159.242 82.2652C161.207 82.2652 162.904 81.7719 164.333 80.7853C165.822 79.7987 167.281 78.0286 168.71 75.4751C170.199 72.9215 171.866 69.2072 173.712 64.3323L174.159 70.6871C174.457 74.8077 175.201 77.7675 176.392 79.5666C177.643 81.3657 179.459 82.2652 181.841 82.2652C183.985 82.2652 185.891 81.6558 187.558 80.4371C189.285 79.2184 191.339 76.955 193.722 73.6469C195.806 70.7452 197.711 67.9305 199.438 65.2028C201.761 65.8992 204.232 66.2474 206.853 66.2474C208.236 66.2474 209.583 66.1606 210.895 65.9869ZM223.842 53.5377C225.39 51.0422 227.266 49.7944 229.47 49.7944C230.541 49.7944 231.375 50.1426 231.971 50.839C232.626 51.4774 232.953 52.348 232.953 53.4506C232.953 55.5979 231.941 57.4841 229.916 59.1091C227.891 60.7341 225.122 61.9528 221.609 62.7653V62.5912C221.609 59.051 222.353 56.0332 223.842 53.5377ZM264.537 49.7944C262.334 49.7944 260.458 51.0422 258.91 53.5377C257.421 56.0332 256.676 59.051 256.676 62.5912V62.7653C260.19 61.9528 262.959 60.7341 264.984 59.1091C267.008 57.4841 268.021 55.5979 268.021 53.4506C268.021 52.348 267.693 51.4774 267.038 50.839C266.443 50.1426 265.609 49.7944 264.537 49.7944ZM357.22 11.404C356.327 10.5334 354.957 9.92406 353.111 9.57585C350.193 9.05353 346.769 8.6763 342.839 8.44415C338.968 8.21201 333.757 8.09594 327.207 8.09594C316.606 8.09594 307.912 8.79237 301.123 10.1852C294.394 11.5781 289.362 13.7834 286.027 16.8013C282.752 19.7611 281.114 23.7075 281.114 28.6405C281.114 30.9619 281.501 33.0512 282.275 34.9083C283.05 36.7074 284.032 38.1003 285.223 39.0869C285.878 39.6672 286.712 39.9574 287.724 39.9574C289.154 39.9574 290.523 39.4931 291.833 38.5645C293.203 37.5779 293.888 36.5333 293.888 35.4306C293.888 34.9663 293.769 34.5311 293.53 34.1248C292.339 32.3257 291.744 30.4396 291.744 28.4664C291.744 26.3191 292.429 24.578 293.798 23.2432C295.228 21.8503 297.61 20.7767 300.945 20.0222C304.279 19.2678 308.865 18.8035 314.701 18.6294C314.403 20.0222 314.135 21.299 313.897 22.4597C313.659 23.5624 313.45 24.549 313.272 25.4195C312.438 29.3079 311.604 33.4284 310.77 37.7811C309.937 42.1337 309.192 46.5154 308.537 50.9261C308.18 53.5377 307.674 56.6136 307.019 60.1537C306.423 63.6939 305.887 67.089 305.411 70.3389C304.994 73.5309 304.786 75.8233 304.786 77.2161C304.786 78.7251 305.322 79.9438 306.393 80.8724C307.465 81.8009 308.984 82.2652 310.949 82.2652C312.795 82.2652 314.373 81.8299 315.683 80.9594C316.994 80.0308 317.708 78.7251 317.827 77.042C318.065 73.8501 318.542 69.6715 319.257 64.5064C319.971 59.2832 320.656 54.6984 321.311 50.752C323.157 39.9574 325.182 29.2208 327.385 18.5423C332.268 18.6004 336.199 18.7164 339.176 18.8905C342.213 19.0066 346.412 19.2678 351.771 19.674C354.153 19.8481 355.88 19.4999 356.952 18.6294C358.084 17.7588 358.649 16.366 358.649 14.4508C358.649 13.2901 358.173 12.2745 357.22 11.404ZM394.208 53.5377C395.756 51.0422 397.632 49.7944 399.835 49.7944C400.907 49.7944 401.741 50.1426 402.336 50.839C402.991 51.4774 403.319 52.348 403.319 53.4506C403.319 55.5979 402.307 57.4841 400.282 59.1091C398.257 60.7341 395.488 61.9528 391.974 62.7653V62.5912C391.974 59.051 392.719 56.0332 394.208 53.5377ZM73.0153 25.5201C73.0153 47.7047 56.2377 73.2868 25.5632 73.2868V73.2737C16.501 73.2859 7.6268 70.6725 0 65.7457C1.31751 65.9045 2.64314 65.9854 3.97006 65.9879C11.4812 65.9955 18.7765 63.4593 24.682 58.7872C21.2017 58.7214 17.8288 57.5623 15.0351 55.4719C12.2414 53.3815 10.1666 50.4645 9.1009 47.1287C11.5999 47.6132 14.176 47.5147 16.6313 46.8406C12.8571 46.0732 9.46281 44.0151 7.02412 41.0156C4.58544 38.0161 3.25254 34.2598 3.25148 30.3838V30.1711C5.5707 31.4725 8.16689 32.1932 10.8209 32.2724C7.2899 29.8988 4.79027 26.2599 3.83099 22.0963C2.87171 17.9327 3.52491 13.5577 5.65758 9.86189C9.84497 15.0478 15.069 19.2894 20.9904 22.3112C26.9119 25.333 33.3984 27.0675 40.029 27.4021C39.1992 23.8031 39.5708 20.029 41.0864 16.664C42.602 13.299 45.1771 10.5307 48.4131 8.78729C51.6492 7.04392 55.3659 6.42277 58.988 7.01996C62.6101 7.61714 65.9357 9.39936 68.4503 12.0908C72.1851 11.3495 75.7666 9.97139 79.0403 8.0159C77.7954 11.9035 75.1898 15.2034 71.7082 17.3015C75.0144 16.9082 78.2433 16.0178 81.2871 14.6602C79.048 18.031 76.2305 20.9736 72.9666 23.3501C73.0153 24.0701 73.0153 24.7935 73.0153 25.5201Z" fill="#1DA1F2"/>
</svg>
