<svg width="24" height="24" viewBox="0 0 24 24" xmlns="http://www.w3.org/2000/svg">
  <path d="M8.60714 13.375H6.82143C6.52679 13.375 6.28571 13.143 6.28571 12.8594V11.1406C6.28571 10.857 6.52679 10.625 6.82143 10.625H8.60714C8.90179 10.625 9.14286 10.857 9.14286 11.1406V12.8594C9.14286 13.143 8.90179 13.375 8.60714 13.375ZM13.4286 12.8594V11.1406C13.4286 10.857 13.1875 10.625 12.8929 10.625H11.1071C10.8125 10.625 10.5714 10.857 10.5714 11.1406V12.8594C10.5714 13.143 10.8125 13.375 11.1071 13.375H12.8929C13.1875 13.375 13.4286 13.143 13.4286 12.8594ZM17.7143 12.8594V11.1406C17.7143 10.857 17.4732 10.625 17.1786 10.625H15.3929C15.0982 10.625 14.8571 10.857 14.8571 11.1406V12.8594C14.8571 13.143 15.0982 13.375 15.3929 13.375H17.1786C17.4732 13.375 17.7143 13.143 17.7143 12.8594ZM13.4286 16.9844V15.2656C13.4286 14.982 13.1875 14.75 12.8929 14.75H11.1071C10.8125 14.75 10.5714 14.982 10.5714 15.2656V16.9844C10.5714 17.268 10.8125 17.5 11.1071 17.5H12.8929C13.1875 17.5 13.4286 17.268 13.4286 16.9844ZM9.14286 16.9844V15.2656C9.14286 14.982 8.90179 14.75 8.60714 14.75H6.82143C6.52679 14.75 6.28571 14.982 6.28571 15.2656V16.9844C6.28571 17.268 6.52679 17.5 6.82143 17.5H8.60714C8.90179 17.5 9.14286 17.268 9.14286 16.9844ZM17.7143 16.9844V15.2656C17.7143 14.982 17.4732 14.75 17.1786 14.75H15.3929C15.0982 14.75 14.8571 14.982 14.8571 15.2656V16.9844C14.8571 17.268 15.0982 17.5 15.3929 17.5H17.1786C17.4732 17.5 17.7143 17.268 17.7143 16.9844ZM22 5.8125V20.9375C22 22.0762 21.0402 23 19.8571 23H4.14286C2.95982 23 2 22.0762 2 20.9375V5.8125C2 4.67383 2.95982 3.75 4.14286 3.75H6.28571V1.51562C6.28571 1.23203 6.52679 1 6.82143 1H8.60714C8.90179 1 9.14286 1.23203 9.14286 1.51562V3.75H14.8571V1.51562C14.8571 1.23203 15.0982 1 15.3929 1H17.1786C17.4732 1 17.7143 1.23203 17.7143 1.51562V3.75H19.8571C21.0402 3.75 22 4.67383 22 5.8125ZM19.8571 20.6797V7.875H4.14286V20.6797C4.14286 20.8215 4.26339 20.9375 4.41071 20.9375H19.5893C19.7366 20.9375 19.8571 20.8215 19.8571 20.6797Z"/>
</svg>
