<svg width="24" height="24" viewBox="0 0 24 24" xmlns="http://www.w3.org/2000/svg">
  <path d="M6.00928 2.00024C4.07928 2.00024 2.50928 3.57024 2.50928 5.50024C2.50928 7.08024 3.56928 8.40324 5.00928 8.83724V15.9972C5.00828 16.1762 5.03628 17.7782 6.18328 18.9282C6.89128 19.6402 7.83928 20.0002 8.99928 20.0002V22.0002L12.9993 19.0002L8.99928 16.0002V18.0002C7.17628 18.0002 7.01528 16.4662 7.00928 16.0002V8.83724C8.44928 8.40324 9.50928 7.08024 9.50928 5.50024C9.50928 3.57024 7.93828 2.00024 6.00928 2.00024ZM6.00928 7.00024C5.18228 7.00024 4.50928 6.32724 4.50928 5.50024C4.50928 4.67324 5.18228 4.00024 6.00928 4.00024C6.83628 4.00024 7.50928 4.67324 7.50928 5.50024C7.50928 6.32724 6.83628 7.00024 6.00928 7.00024ZM19.0093 15.1632V7.99724C19.0043 6.39124 17.9323 4.00024 14.9993 4.00024V2.00024L10.9993 5.00024L14.9993 8.00024V6.00024C16.8283 6.00024 17.0003 7.53924 17.0093 8.00024V15.1632C15.5693 15.5972 14.5093 16.9202 14.5093 18.5002C14.5093 20.4302 16.0793 22.0002 18.0093 22.0002C19.9393 22.0002 21.5093 20.4302 21.5093 18.5002C21.5093 16.9202 20.4493 15.5972 19.0093 15.1632ZM18.0093 20.0002C17.1823 20.0002 16.5093 19.3272 16.5093 18.5002C16.5093 17.6732 17.1823 17.0002 18.0093 17.0002C18.8363 17.0002 19.5093 17.6732 19.5093 18.5002C19.5093 19.3272 18.8363 20.0002 18.0093 20.0002Z"/>
</svg>
