<svg width="24" height="24" viewBox="0 0 24 24" xmlns="http://www.w3.org/2000/svg">
<path d="M12.0129 12.7967L5.63789 19.1717C5.19726 19.6124 4.48476 19.6124 4.04883 19.1717L2.98945 18.1124C2.54883 17.6717 2.54883 16.9592 2.98945 16.5233L7.50351 11.9999L2.98476 7.4811C2.54414 7.04048 2.54414 6.32798 2.98476 5.89204L4.04414 4.82798C4.48476 4.38735 5.19726 4.38735 5.6332 4.82798L12.0082 11.203C12.4535 11.6436 12.4535 12.3561 12.0129 12.7967V12.7967ZM21.0129 11.203L14.6379 4.82798C14.1973 4.38735 13.4848 4.38735 13.0488 4.82798L11.9895 5.88735C11.5488 6.32798 11.5488 7.04048 11.9895 7.47642L16.5035 11.9999L11.9848 16.5186C11.5441 16.9592 11.5441 17.6717 11.9848 18.1077L13.0441 19.1717C13.4848 19.6124 14.1973 19.6124 14.6332 19.1717L21.0082 12.7967C21.4535 12.3561 21.4535 11.6436 21.0129 11.203V11.203Z"/>
</svg>
