<svg width="24" height="24" viewBox="0 0 24 24" xmlns="http://www.w3.org/2000/svg">
<path fill-rule="evenodd" clip-rule="evenodd" d="M6.35134 9.24829C6.12638 9.02326 6 8.71809 6 8.39989C6 8.08169 6.12638 7.77652 6.35134 7.55149L11.1513 2.75149C11.3764 2.52652 11.6815 2.40015 11.9997 2.40015C12.3179 2.40015 12.6231 2.52652 12.8481 2.75149L17.6481 7.55149C17.8667 7.77781 17.9877 8.08094 17.985 8.39557C17.9822 8.71021 17.856 9.01118 17.6335 9.23367C17.411 9.45616 17.1101 9.58237 16.7954 9.5851C16.4808 9.58783 16.1777 9.46688 15.9513 9.24829L13.1997 6.49669V20.3999C13.1997 20.7182 13.0733 21.0234 12.8483 21.2484C12.6232 21.4735 12.318 21.5999 11.9997 21.5999C11.6815 21.5999 11.3763 21.4735 11.1512 21.2484C10.9262 21.0234 10.7997 20.7182 10.7997 20.3999V6.49669L8.04814 9.24829C7.82311 9.47326 7.51794 9.59963 7.19974 9.59963C6.88155 9.59963 6.57638 9.47326 6.35134 9.24829Z"/>
</svg>
