<svg width="24" height="24" viewBox="0 0 24 24" xmlns="http://www.w3.org/2000/svg">
<path fill-rule="evenodd" clip-rule="evenodd" d="M17.6485 14.7517C17.8735 14.9768 17.9998 15.2819 17.9998 15.6001C17.9998 15.9183 17.8735 16.2235 17.6485 16.4485L12.8485 21.2485C12.6235 21.4735 12.3183 21.5999 12.0001 21.5999C11.6819 21.5999 11.3767 21.4735 11.1517 21.2485L6.3517 16.4485C6.23709 16.3379 6.14567 16.2054 6.08278 16.059C6.01988 15.9126 5.98678 15.7552 5.9854 15.5958C5.98401 15.4365 6.01437 15.2785 6.07471 15.131C6.13505 14.9835 6.22415 14.8495 6.33682 14.7369C6.44949 14.6242 6.58348 14.5351 6.73095 14.4748C6.87843 14.4144 7.03644 14.3841 7.19578 14.3854C7.35511 14.3868 7.51258 14.4199 7.65898 14.4828C7.80539 14.5457 7.9378 14.6371 8.0485 14.7517L10.8001 17.5033V3.60015C10.8001 3.28189 10.9265 2.97666 11.1516 2.75162C11.3766 2.52657 11.6818 2.40015 12.0001 2.40015C12.3184 2.40015 12.6236 2.52657 12.8486 2.75162C13.0737 2.97666 13.2001 3.28189 13.2001 3.60015V17.5033L15.9517 14.7517C16.1767 14.5268 16.4819 14.4004 16.8001 14.4004C17.1183 14.4004 17.4235 14.5268 17.6485 14.7517Z"/>
</svg>
