<svg width="24" height="24" viewBox="0 0 24 24" fill="none" xmlns="http://www.w3.org/2000/svg">
<path d="M10.7402 7.10742L8.03983 2.60703C7.9288 2.4219 7.77171 2.26868 7.58387 2.1623C7.39603 2.05592 7.18383 2 6.96795 2H2.62615C2.12028 2 1.82419 2.56914 2.11403 2.98359L6.46053 9.19297C7.62147 8.1082 9.09804 7.36367 10.7402 7.10742ZM21.3739 2H17.032C16.593 2 16.1859 2.23047 15.9602 2.60703L13.2598 7.10742C14.902 7.36367 16.3785 8.1082 17.5395 9.19258L21.886 2.98359C22.1758 2.56914 21.8797 2 21.3739 2ZM12 8.25C8.20311 8.25 5.12498 11.3281 5.12498 15.125C5.12498 18.9219 8.20311 22 12 22C15.7969 22 18.875 18.9219 18.875 15.125C18.875 11.3281 15.7969 8.25 12 8.25ZM15.6141 14.393L14.1324 15.8367L14.4828 17.8766C14.5453 18.2422 14.1602 18.5215 13.8324 18.3488L12 17.3859L10.168 18.3488C9.83984 18.5227 9.45507 18.2418 9.51757 17.8766L9.86796 15.8367L8.38632 14.393C8.11991 14.1336 8.26718 13.6809 8.63437 13.6277L10.6824 13.3293L11.5977 11.473C11.6801 11.3059 11.8395 11.2234 11.9992 11.2234C12.1598 11.2234 12.3203 11.307 12.4027 11.473L13.318 13.3293L15.366 13.6277C15.7332 13.6809 15.8805 14.1336 15.6141 14.393V14.393Z" fill="black"/>
</svg>
